<?xml version="1.0"?>
<svg xmlns="http://www.w3.org/2000/svg" xmlns:xlink="http://www.w3.org/1999/xlink" xmlns:svgjs="http://svgjs.com/svgjs" version="1.1" width="512" height="512" x="0" y="0" viewBox="0 0 24 24" style="enable-background:new 0 0 512 512" xml:space="preserve"><g><path xmlns="http://www.w3.org/2000/svg" d="M0,3v8H11V0H3A3,3,0,0,0,0,3ZM3,3H8V8H3Z" fill="#ffffff" data-original="#000000"/><path xmlns="http://www.w3.org/2000/svg" d="M21,0H13V11H24V3A3,3,0,0,0,21,0Zm0,8H16V3h5Z" fill="#ffffff" data-original="#000000"/><path xmlns="http://www.w3.org/2000/svg" d="M0,21a3,3,0,0,0,3,3h8V13H0Zm3-5H8v5H3Z" fill="#ffffff" data-original="#000000"/><path xmlns="http://www.w3.org/2000/svg" d="M13,24h8a3,3,0,0,0,3-3V13H13Zm3-8h5v5H16Z" fill="#ffffff" data-original="#000000"/></g></svg>
